<?xml version="1.0" encoding="UTF-8"?>
<svg width="169px" height="252px" viewBox="0 0 169 252" version="1.1" xmlns="http://www.w3.org/2000/svg" xmlns:xlink="http://www.w3.org/1999/xlink">
    <title>1A21ECBD-C09B-4786-ACD9-B34D959AF468</title>
    <defs>
        <path d="M24,0 L133,0 C146.254834,-2.4348735e-15 157,10.745166 157,24 L157,216 C157,229.254834 146.254834,240 133,240 L24,240 C10.745166,240 -5.48217835e-15,229.254834 0,216 L0,24 C-1.623249e-15,10.745166 10.745166,2.4348735e-15 24,0 Z" id="path-1"></path>
        <filter x="-6.4%" y="-3.3%" width="112.7%" height="108.3%" filterUnits="objectBoundingBox" id="filter-2">
            <feOffset dx="0" dy="2" in="SourceAlpha" result="shadowOffsetOuter1"></feOffset>
            <feGaussianBlur stdDeviation="3" in="shadowOffsetOuter1" result="shadowBlurOuter1"></feGaussianBlur>
            <feComposite in="shadowBlurOuter1" in2="SourceAlpha" operator="out" result="shadowBlurOuter1"></feComposite>
            <feColorMatrix values="0 0 0 0 0   0 0 0 0 0   0 0 0 0 0  0 0 0 0.1 0" type="matrix" in="shadowBlurOuter1"></feColorMatrix>
        </filter>
        <path d="M24,0 L133,0 C146.254834,-2.4348735e-15 157,10.745166 157,24 L157,216 C157,229.254834 146.254834,240 133,240 L24,240 C10.745166,240 -5.48217835e-15,229.254834 0,216 L0,24 C-1.623249e-15,10.745166 10.745166,2.4348735e-15 24,0 Z" id="path-3"></path>
    </defs>
    <g id="FINAL" stroke="none" stroke-width="1" fill="none" fill-rule="evenodd">
        <g id="Happy-Hunny-Landing-Phase1-Start" transform="translate(-734.000000, -76.000000)">
            <g id="Game" transform="translate(79.000000, 80.000000)">
                <g id="card-5" transform="translate(660.927720, 0.000000)">
                    <g id="Rectangle-Copy-19">
                        <use fill="black" fill-opacity="1" filter="url(#filter-2)" xlink:href="#path-1"></use>
                        <path stroke="#FFFFFF" stroke-width="5" d="M133,2.5 C138.937061,2.5 144.312061,4.90646947 148.202796,8.7972042 C152.093531,12.6879389 154.5,18.0629389 154.5,24 L154.5,24 L154.5,216 C154.5,221.937061 152.093531,227.312061 148.202796,231.202796 C144.312061,235.093531 138.937061,237.5 133,237.5 L133,237.5 L24,237.5 C18.0629389,237.5 12.6879389,235.093531 8.7972042,231.202796 C4.90646947,227.312061 2.5,221.937061 2.5,216 L2.5,216 L2.5,24 C2.5,18.0629389 4.90646947,12.6879389 8.7972042,8.7972042 C12.6879389,4.90646947 18.0629389,2.5 24,2.5 L24,2.5 Z" stroke-linejoin="square" fill="#FFD343" fill-rule="evenodd"></path>
                    </g>
                    <g id="card-dotted-line">
                        <mask id="mask-4" fill="white">
                            <use xlink:href="#path-3"></use>
                        </mask>
                        <g id="Mask"></g>
                        <path d="M45.5716553,12.0707703 C19.8090214,35.8719289 -19.6571073,67.4653113 -45.3585815,81.9187012 C-82.1643066,102.616638 -87.1417236,112.069637 -165,132.112427 C-203.173413,141.939278 -255.634903,149.531915 -277.452271,106.506653 C-287.333912,87.0194149 -268.945188,67.7439488 -249.055298,78.6975708 C-228.40275,90.0711984 -237.746954,125.633662 -257.202515,132.112427 C-268.636412,135.919952 -275.59772,137.064205 -287.07959,137.486694 C-328.499866,139.010803 -370.618944,134.778177 -411.360413,141.47876 C-541.066772,162.811035 -560.040112,252.888783 -563.023865,268.050476 C-573.444092,321 -563.023865,395.723816 -495,421.943909 C-411.997966,453.937402 -364.872336,392.280536 -290.379761,356.917603 C-212.612252,320 -205.862307,358.062027 -211.017578,381.199463 C-212.612252,388.356537 -236.60968,423.641418 -210.432983,432.494629 C-168.329187,446.734537 -140.522958,409.829935 -98.7584229,402.735596 C-84.4325824,400.302135 -15.7041016,388.647522 -33.3223877,460 C-45.0679118,507.568319 -90.6951497,525.194427 -170.204102,512.878326" id="Path-7" stroke="#D6A12B" stroke-width="2" opacity="0.400000006" stroke-linecap="round" stroke-linejoin="round" stroke-dasharray="8,8" mask="url(#mask-4)"></path>
                    </g>
                    <path d="M108.945833,33 C113.087969,33 116.837969,34.6789322 119.552435,37.3933983 C122.266901,40.1078644 123.945833,43.8578644 123.945833,48 L123.945833,48 L123.945833,190.783963 C123.945833,194.879933 122.302764,198.597134 119.635831,201.306508 C116.968897,204.015883 113.278098,205.717431 109.182639,205.782094 L109.182639,205.782094 L48.4006331,206.741781 C44.2590137,206.807173 40.4829757,205.187651 37.7259945,202.516377 C34.9714683,199.847481 33.2341849,196.128705 33.1658756,191.991519 L33.1658756,191.991519 L34.1306249,47.89915 C34.1583416,43.7767862 35.8470283,40.0519987 38.5594002,37.3578022 C41.271772,34.6636056 45.0078289,33 49.1302859,33 L49.1302859,33 Z" id="Rectangle-Copy-17" stroke="#FFFFFF" stroke-width="2" opacity="0.400000006"></path>
                </g>
            </g>
        </g>
    </g>
</svg>